<svg width="146" height="220" viewBox="0 0 146 220" fill="none" xmlns="http://www.w3.org/2000/svg">
<g clip-path="url(#clip0)">
<path d="M0.223358 179.327C0.223358 178.184 0.214355 177.033 0.214355 175.889C0.367707 174.265 0.475954 172.631 0.692449 171.015C1.14348 167.56 1.53136 164.105 2.14476 160.677C2.75816 157.248 3.66924 153.883 4.33677 150.464C4.68857 148.687 4.73367 146.857 5.04038 145.071C5.68986 141.25 6.2762 137.411 7.1512 133.643C8.11641 129.501 9.40638 125.43 10.5159 121.314C11.2646 118.502 11.9141 115.664 12.6629 112.852C12.9875 111.619 13.4837 110.432 13.8535 109.209C15.2608 104.548 16.5688 99.8524 18.0842 95.2369C18.9683 92.5407 20.2041 89.9605 21.2776 87.3268C21.8278 85.9788 22.2608 84.5593 22.9554 83.2916C23.8123 81.7381 24.8497 80.2829 25.8871 78.8455C26.4193 78.1046 27.141 78.2027 27.4928 78.9884C28.2415 80.6668 29.0173 82.3452 29.4954 84.104C30.3163 87.1484 30.9025 90.2551 31.6242 93.3263C32.2376 95.951 32.9502 98.5579 33.5366 101.182C34.0327 103.397 34.4838 105.628 34.8266 107.879C35.3227 111.181 35.6474 114.503 36.1526 117.806C36.6577 121.145 37.3524 124.457 37.8575 127.796C38.3266 130.93 38.6874 134.072 39.0483 137.215C39.4993 141.099 39.9503 144.982 40.3381 148.865C40.5637 151.16 40.681 153.472 40.8433 155.775C40.8433 161.195 40.8434 166.613 40.8343 172.042C40.6719 173.059 40.4013 174.069 40.3562 175.086C40.1938 178.979 39.6796 182.827 38.3626 186.487C37.4876 188.906 36.2789 191.263 34.8536 193.405C34.0508 194.611 32.5894 195.494 31.2724 196.245C29.793 197.093 28.1242 197.62 26.5456 198.289C26.6448 197.432 26.8253 196.575 26.8432 195.718C26.8883 193.2 26.8793 190.683 26.8883 188.165C26.8883 187.719 26.8883 187.272 26.8883 186.754C24.7324 186.63 22.7298 186.513 20.6912 186.388C20.1589 190.299 19.6538 194.075 19.1396 197.851C15.5584 196.789 12.2118 195.343 9.47854 192.709C8.2788 191.549 6.8355 190.62 5.64477 189.451C3.07389 186.916 1.43212 183.826 0.421813 180.398C0.385731 180.247 0.349652 180.103 0.31357 179.952C0.277487 179.746 0.250419 179.541 0.223358 179.327Z" fill="#A0B4BB"/>
<path d="M19.1387 197.869C19.6529 194.093 20.1581 190.308 20.6903 186.406C22.729 186.522 24.7315 186.648 26.8875 186.772C26.8875 187.29 26.8875 187.737 26.8875 188.183C26.8785 190.701 26.8875 193.218 26.8424 195.735C26.8244 196.592 26.6529 197.45 26.5447 198.307C26.4726 203.056 26.4004 207.806 26.3282 212.511C23.7663 212.895 21.3308 213.26 18.8591 213.636C18.9493 208.253 19.0395 203.065 19.1387 197.869Z" fill="#A0B4BB"/>
<path d="M145.872 90.2641C145.863 90.1151 145.857 89.9661 145.848 89.817C145.784 89.3818 145.725 88.9467 145.661 88.5116C145.617 87.9095 145.574 87.3044 145.529 86.7024C145.492 86.3567 145.46 86.0109 145.423 85.6651C145.384 85.4595 145.348 85.2508 145.309 85.0452C145.3 84.9558 145.291 84.8633 145.282 84.774C145.215 84.3298 145.149 83.8857 145.083 83.4417C145.046 83.0959 145.011 82.7502 144.972 82.4044C144.932 82.2465 144.894 82.0915 144.854 81.9335C144.842 81.8441 144.83 81.7517 144.818 81.6623C144.781 81.555 144.746 81.4447 144.71 81.3374C144.701 81.2479 144.691 81.1586 144.679 81.0662C144.664 80.8694 144.646 80.6727 144.631 80.4761C144.622 80.2882 144.613 80.1035 144.605 79.9157C144.489 79.5491 144.375 79.1825 144.261 78.8159C144.252 78.6758 144.24 78.5357 144.23 78.3986C144.212 77.8561 144.194 77.3136 144.176 76.7683C144.17 76.5805 144.165 76.3957 144.159 76.2079C144.119 75.9993 144.08 75.7906 144.04 75.582C144.028 75.4449 144.017 75.3078 144.005 75.1736C143.941 75.0545 143.876 74.9352 143.809 74.816C143.794 74.6759 143.781 74.5358 143.766 74.3988C143.728 74.0947 143.691 73.7907 143.652 73.4867C143.646 73.2482 143.64 73.0069 143.631 72.7684C143.616 72.4226 143.597 72.0769 143.583 71.7311C143.547 71.4838 143.514 71.2363 143.477 70.989C143.384 70.6342 143.294 70.2826 143.2 69.9279C143.188 69.8355 143.176 69.7461 143.161 69.6537C143.152 69.4569 143.143 69.2573 143.134 69.0606C143.101 68.7148 143.065 68.3661 143.031 68.0204C142.987 67.618 142.944 67.2156 142.899 66.8133C142.89 66.5748 142.878 66.3333 142.868 66.095C142.862 65.9966 142.854 65.8983 142.848 65.7998C142.809 65.6002 142.772 65.4035 142.733 65.2037C142.67 64.9087 142.61 64.6106 142.547 64.3156C142.532 64.1784 142.52 64.0414 142.504 63.9073C142.444 63.788 142.381 63.6658 142.32 63.5466C142.305 63.3588 142.29 63.171 142.278 62.9833C142.234 62.8283 142.191 62.6732 142.146 62.5183C142.04 62.0294 141.935 61.5436 141.83 61.0548C141.815 60.9058 141.797 60.7598 141.782 60.6108C141.649 60.116 141.514 59.6212 141.381 59.1264C141.366 58.9297 141.351 58.7331 141.336 58.5333C141.327 58.3962 141.317 58.2591 141.308 58.122C141.243 57.9551 141.173 57.7882 141.104 57.6183C141.092 57.5289 141.08 57.4365 141.071 57.347C140.986 57.0907 140.902 56.8344 140.817 56.5781C140.803 56.438 140.791 56.3009 140.776 56.1608C140.739 56.0028 140.7 55.8478 140.664 55.6899C140.604 55.4008 140.54 55.1147 140.48 54.8255C140.468 54.7272 140.453 54.6288 140.441 54.5305C140.432 54.441 140.423 54.3546 140.417 54.2652C140.377 54.1073 140.336 53.9463 140.293 53.7883C140.281 53.6005 140.272 53.4157 140.263 53.228C140.124 52.7212 139.983 52.2176 139.844 51.7109C139.835 51.4754 139.826 51.24 139.817 51.0015C139.776 50.7929 139.733 50.5842 139.691 50.3756C139.682 50.2384 139.669 50.1014 139.66 49.9673C139.598 49.7974 139.534 49.6275 139.471 49.4606C139.438 49.234 139.404 49.0045 139.371 48.7781C139.302 48.6112 139.23 48.4442 139.161 48.2773C139.152 48.1849 139.143 48.0955 139.134 48.0031C139.097 47.7975 139.059 47.5918 139.022 47.3831C139.01 47.243 138.998 47.103 138.986 46.9658C138.922 46.7185 138.859 46.4711 138.796 46.2237C138.784 46.0866 138.775 45.9525 138.763 45.8154C138.697 45.6962 138.63 45.5769 138.564 45.4577C138.558 45.3653 138.552 45.2759 138.546 45.1835C138.531 44.9868 138.516 44.7901 138.504 44.5933C138.465 44.346 138.426 44.0985 138.386 43.8512C138.35 43.7439 138.311 43.6336 138.275 43.5263C138.263 43.4369 138.251 43.3474 138.239 43.2581C138.199 43.1508 138.158 43.0435 138.118 42.9362C138.013 42.5487 137.904 42.1612 137.796 41.7738C137.753 41.6158 137.712 41.4608 137.669 41.3028C137.181 38.8946 136.775 36.4684 136.184 34.084C135.419 31.0021 134.648 27.9083 133.63 24.9009C132.229 20.767 130.795 16.627 128.611 12.8089C127.325 10.5615 126.057 8.29341 124.619 6.13848C123.111 3.87327 121.062 2.22802 118.264 1.70643C116.754 1.42626 115.245 1.13118 113.733 0.856968C112.808 0.687078 111.878 0.427776 110.949 0.415854C109.42 0.394991 107.874 0.44864 106.358 0.648336C104.738 0.862935 103.121 1.19974 101.547 1.64085C99.999 2.07601 98.4871 2.65424 96.9989 3.26524C94.9324 4.11172 92.8599 4.96117 90.8687 5.95964C88.7901 7.00283 86.844 8.27552 85.0126 9.72406C84.0034 10.5198 82.9038 11.1995 81.8435 11.9326C81.7411 12.0042 81.6386 12.0727 81.5422 12.1502C80.3192 13.1546 79.0359 14.0965 77.8972 15.1844C76.5236 16.4958 75.1741 17.855 73.9962 19.3392C72.2189 21.5807 70.5139 23.8936 68.9323 26.275C66.5374 29.8815 64.989 33.8962 63.4708 37.9229C62.311 40.9929 61.091 44.045 59.7716 47.0523C57.9551 51.1893 56.8013 55.52 55.8193 59.8984C55.4879 61.3768 55.4368 62.9207 55.2891 64.4378C54.9878 67.5226 54.7048 70.6105 54.4185 73.6983C54.3884 74.0172 54.4125 74.3391 54.3975 74.661C54.2529 77.6355 54.06 80.6101 53.9727 83.5877C53.9244 85.2121 54.0209 86.8424 54.1173 88.4668C54.2047 89.9153 54.3523 91.3609 54.53 92.8006C54.7077 94.2401 54.9728 95.6708 55.1687 97.1074C55.2861 97.9837 55.3313 98.8689 55.4277 99.7479C55.7952 103.095 56.1808 106.443 56.5423 109.793C56.6417 110.723 56.7109 111.655 56.7591 112.588C56.8797 114.901 56.9339 117.22 57.0996 119.53C57.2141 121.098 57.449 122.66 57.681 124.216C57.9852 126.257 58.3015 128.298 58.6751 130.331C59.2052 133.24 60.4675 135.875 62.0068 138.367C63.278 140.424 64.5402 142.525 66.1157 144.34C67.5556 146 69.1311 147.606 71.0681 148.796C74.8095 151.094 78.5268 153.434 82.2321 155.791C84.2775 157.091 86.4193 158.158 88.7208 158.941C90.4138 159.517 92.0646 160.211 93.7364 160.852C93.8901 159.66 94.1342 158.471 94.1794 157.272C94.2577 155.347 94.2034 153.419 94.2094 151.493C94.2125 150.951 94.1883 150.402 94.2486 149.866C94.4716 147.89 94.7487 145.923 94.9595 143.946C95.0981 142.627 95.1704 141.3 95.2396 139.974C95.2487 139.792 95.1372 139.514 94.9927 139.431C94.2908 139.022 93.5708 138.638 92.8358 138.296C91.3536 137.61 89.7842 137.073 88.3774 136.262C86.7567 135.33 85.2023 134.248 83.7413 133.079C82.1477 131.804 80.6687 130.379 79.1956 128.963C78.6142 128.403 78.2075 127.672 77.6954 127.038C75.7041 124.567 73.96 121.935 72.4327 119.163C72.2941 118.913 72.2429 118.537 72.3182 118.266C72.7069 116.922 73.1226 115.584 73.5895 114.263C74.0625 112.934 74.6077 111.628 75.1831 110.153C75.5295 110.884 75.7764 111.441 76.0566 111.981C76.7375 113.295 77.3792 114.633 78.1383 115.902C79.0872 117.488 80.0511 119.08 81.1748 120.544C82.1025 121.75 83.2262 122.82 84.3468 123.863C85.6843 125.109 87.0068 126.409 88.522 127.414C90.456 128.698 92.5677 129.718 94.6131 130.83C95.0138 131.047 95.4626 131.175 95.9415 131.366C95.9958 130.382 96.0108 129.5 96.0983 128.621C96.3331 126.314 96.7941 124.03 96.767 121.694C96.755 120.716 96.9357 119.738 97.0079 118.761C97.1285 117.119 97.3152 115.473 97.3213 113.828C97.3243 112.108 97.1044 110.391 97.0621 108.672C97.014 106.672 97.02 104.669 97.0682 102.669C97.0833 102.034 96.8664 101.662 96.3362 101.378C95.1372 100.734 93.86 100.189 92.7695 99.3935C91.1428 98.2072 89.5673 96.9196 88.1214 95.5218C86.9827 94.419 86.0096 93.1284 85.0818 91.8379C84.3377 90.8066 83.7564 89.6561 83.1268 88.5443C82.1809 86.8723 81.2078 85.2121 80.3342 83.5042C79.786 82.4372 79.3673 81.2986 78.9426 80.175C78.2106 78.2496 77.4966 76.3182 76.8339 74.3689C76.7284 74.0589 76.8158 73.5641 77.0116 73.2929C77.828 72.1543 78.7136 71.0605 79.5871 69.9607C80.1113 69.299 80.6566 68.6552 81.2379 67.9459C81.3916 68.2052 81.5031 68.3422 81.5573 68.5002C82.2321 70.4793 82.8376 72.4822 83.5817 74.4345C84.8468 77.7607 86.085 81.0781 88.3021 83.9782C90.197 86.452 92.4322 88.5473 94.7607 90.577C95.556 91.2685 96.3302 91.9869 97.1797 92.7529C97.246 92.3952 97.3454 92.112 97.3423 91.8319C97.3093 87.9662 97.5352 84.1152 97.9328 80.2674C98.1949 77.7548 98.3967 75.2362 98.5292 72.7147C98.6889 69.7163 98.7461 66.7119 98.8426 63.7135C98.8516 63.4303 98.8426 63.1472 98.8426 62.7985C100.906 62.9147 102.831 63.022 104.765 63.1323C104.795 63.3022 104.822 63.3976 104.825 63.4899C104.964 67.5762 104.915 71.6655 105.036 75.7578C105.295 84.5207 105.117 93.2983 105.142 102.067C105.145 103.006 105.31 103.941 105.413 105.02C106.286 104.329 107.015 103.751 107.744 103.176C108.347 102.702 109.027 102.3 109.546 101.749C110.949 100.252 112.266 98.7109 113.377 96.9495C114.781 94.723 115.742 92.3415 116.652 89.9213C117.363 88.0316 117.971 86.1003 118.601 84.1838C119.07 82.7591 119.507 81.3255 119.95 79.8919C120.402 78.4224 120.845 76.95 121.297 75.4628C121.399 75.5254 121.46 75.5402 121.481 75.576C123.065 78.1452 124.653 80.7115 126.216 83.2896C126.322 83.4625 126.319 83.7606 126.252 83.9662C125.351 86.753 124.46 89.5458 123.508 92.3147C122.893 94.109 122.264 95.9062 121.499 97.6409C120.309 100.341 118.784 102.857 116.866 105.125C115.124 107.178 113.416 109.262 111.63 111.274C110.001 113.106 108.027 114.406 105.443 114.624C105.334 115.249 105.157 115.852 105.142 116.454C105.03 120.94 105.304 125.429 104.856 129.914C104.69 131.568 104.927 133.261 104.988 134.939C104.991 135.002 105.045 135.062 105.09 135.148C106.636 134.481 108.139 133.774 109.684 133.172C112.853 131.943 115.483 130.021 117.426 127.255C118.818 125.277 120.149 123.253 121.411 121.193C122.803 118.919 124.08 116.576 125.421 114.272C125.689 113.81 126.027 113.39 126.334 112.946C126.467 113.021 126.544 113.045 126.59 113.092C128.005 114.586 129.433 116.067 130.816 117.59C130.967 117.754 130.961 118.207 130.847 118.434C130.445 119.226 129.985 119.989 129.506 120.74C128.539 122.263 127.436 123.712 126.596 125.298C125.388 127.578 124.099 129.818 122.454 131.783C120.475 134.146 118.474 136.519 116.061 138.486C114.893 139.44 113.781 140.451 112.365 141.085C110.284 142.021 108.271 143.112 106.187 144.039C105.397 144.39 105.352 144.849 105.487 145.544C105.647 146.361 105.84 147.189 105.846 148.015C105.889 153.672 105.886 159.329 105.898 164.986C107.738 164.929 109.584 164.932 111.42 164.786C112.426 164.706 113.398 164.244 114.404 164.179C117.212 163.997 119.528 162.495 122.005 161.461C123.794 160.712 125.249 159.394 126.433 157.809C128.897 154.516 131.133 151.085 133.003 147.425C134.534 144.435 136.04 141.431 137.615 138.465C139.579 134.766 140.983 130.839 142.55 126.976C142.763 126.451 142.987 125.93 143.206 125.408C143.246 125.3 143.285 125.193 143.327 125.086C143.339 124.996 143.351 124.907 143.366 124.815C143.453 124.507 143.541 124.204 143.625 123.899C143.685 123.661 143.745 123.422 143.806 123.184C143.926 122.919 144.046 122.654 144.165 122.388C144.27 122.004 144.375 121.617 144.477 121.232C144.52 121.122 144.565 121.015 144.608 120.904C144.616 120.814 144.628 120.728 144.637 120.638C144.679 120.481 144.725 120.326 144.766 120.167C144.92 119.682 145.074 119.196 145.227 118.713C145.243 117.775 145.255 116.836 145.27 115.896C145.357 114.958 145.448 114.019 145.535 113.078C145.571 112.967 145.608 112.857 145.646 112.746C145.658 112.609 145.667 112.472 145.679 112.338C145.725 112.231 145.767 112.12 145.812 112.013C145.869 111.602 145.972 111.187 145.975 110.776C145.996 108.234 145.993 105.688 145.999 103.146C145.996 101.176 146.008 99.2057 145.99 97.2355C145.972 95.1492 145.923 93.0598 145.888 90.9735C145.885 90.744 145.878 90.5026 145.872 90.2641Z" fill="#A4D6AF"/>
<path d="M105.901 165.001C105.889 159.344 105.892 153.687 105.85 148.03C105.844 147.204 105.654 146.376 105.491 145.559C105.352 144.864 105.401 144.402 106.19 144.054C108.274 143.127 110.287 142.036 112.368 141.1C113.785 140.463 114.896 139.455 116.065 138.501C118.477 136.531 120.481 134.158 122.457 131.798C124.102 129.833 125.394 127.593 126.599 125.312C127.44 123.727 128.543 122.278 129.509 120.755C129.985 120.004 130.446 119.238 130.85 118.448C130.964 118.222 130.97 117.772 130.82 117.604C129.436 116.082 128.009 114.6 126.593 113.106C126.545 113.057 126.47 113.036 126.337 112.961C126.03 113.405 125.692 113.828 125.424 114.287C124.084 116.591 122.807 118.934 121.414 121.208C120.153 123.271 118.818 125.292 117.43 127.27C115.486 130.036 112.857 131.958 109.688 133.187C108.142 133.786 106.639 134.495 105.093 135.163C105.048 135.077 104.994 135.017 104.991 134.954C104.931 133.279 104.696 131.583 104.859 129.929C105.305 125.444 105.034 120.955 105.145 116.469C105.16 115.864 105.34 115.264 105.446 114.639C108.028 114.421 110.004 113.121 111.633 111.289C113.423 109.277 115.131 107.193 116.869 105.14C118.788 102.875 120.315 100.356 121.502 97.6558C122.268 95.9211 122.894 94.1239 123.511 92.3296C124.463 89.5578 125.355 86.7679 126.256 83.9811C126.322 83.7755 126.325 83.4774 126.219 83.3046C124.656 80.7235 123.069 78.1572 121.484 75.5909C121.463 75.5552 121.402 75.5403 121.3 75.4777C120.848 76.9649 120.405 78.4373 119.953 79.9068C119.511 81.3404 119.074 82.774 118.605 84.1987C117.972 86.1182 117.363 88.0466 116.655 89.9362C115.745 92.3564 114.788 94.7379 113.38 96.9644C112.269 98.7229 110.953 100.266 109.549 101.763C109.031 102.315 108.353 102.717 107.747 103.191C107.015 103.766 106.29 104.344 105.416 105.036C105.314 103.957 105.148 103.021 105.145 102.082C105.121 93.3102 105.299 84.5356 105.04 75.7728C104.918 71.6835 104.967 67.5942 104.828 63.5049C104.825 63.4095 104.798 63.3171 104.768 63.1472C102.835 63.0369 100.91 62.9296 98.8459 62.8134C98.8459 63.1621 98.8549 63.4453 98.8459 63.7284C98.7464 66.7299 98.6892 69.7342 98.5326 72.7296C98.4 75.2511 98.1982 77.7727 97.9361 80.2823C97.5354 84.1301 97.3125 87.9811 97.3457 91.8468C97.3487 92.13 97.2493 92.4101 97.183 92.7678C96.3336 92.0018 95.5594 91.2864 94.764 90.5919C92.4355 88.5622 90.2003 86.4699 88.3054 83.9931C86.0883 81.096 84.8471 77.7756 83.585 74.4494C82.8438 72.4972 82.2354 70.4913 81.5606 68.5151C81.5064 68.3571 81.3919 68.2201 81.2413 67.9608C80.6599 68.6702 80.1146 69.314 79.5905 69.9756C78.7169 71.0754 77.8312 72.1663 77.0149 73.3078C76.819 73.579 76.7317 74.0709 76.8372 74.3838C77.5 76.3331 78.2139 78.2645 78.9458 80.1899C79.3736 81.3136 79.7923 82.4492 80.3375 83.5192C81.2142 85.227 82.1842 86.8872 83.1301 88.5592C83.7597 89.671 84.3411 90.8185 85.0851 91.8528C86.0129 93.1433 86.986 94.4339 88.1247 95.5367C89.5706 96.9346 91.1431 98.2222 92.7728 99.4085C93.8633 100.204 95.1375 100.749 96.3395 101.393C96.8697 101.677 97.0866 102.049 97.0715 102.684C97.0202 104.684 97.0143 106.686 97.0654 108.687C97.1077 110.407 97.3306 112.123 97.3246 113.843C97.3216 115.488 97.1348 117.131 97.0113 118.776C96.939 119.753 96.7582 120.734 96.7703 121.709C96.8004 124.045 96.3365 126.329 96.1015 128.636C96.0112 129.512 95.9991 130.397 95.9449 131.381C95.4629 131.19 95.0141 131.062 94.6164 130.845C92.571 129.73 90.4593 128.711 88.5253 127.429C87.0131 126.424 85.6876 125.121 84.3501 123.878C83.2295 122.835 82.1059 121.762 81.1781 120.559C80.0544 119.094 79.0905 117.503 78.1416 115.917C77.3825 114.648 76.7408 113.309 76.0599 111.996C75.7798 111.456 75.5328 110.896 75.1864 110.168C74.611 111.643 74.0658 112.949 73.5928 114.278C73.1259 115.599 72.7102 116.937 72.3216 118.281C72.2433 118.549 72.2975 118.928 72.436 119.178C73.9633 121.95 75.7075 124.585 77.6987 127.053C78.2108 127.687 78.6175 128.418 79.1988 128.978C80.6689 130.397 82.1511 131.819 83.7446 133.094C85.2026 134.263 86.757 135.345 88.3807 136.277C89.7876 137.088 91.354 137.625 92.8391 138.311C93.5771 138.65 94.2941 139.037 94.996 139.446C95.1406 139.529 95.252 139.807 95.2429 139.989C95.1706 141.315 95.1014 142.641 94.9628 143.961C94.752 145.937 94.4749 147.908 94.2519 149.881C94.1917 150.417 94.2128 150.966 94.2128 151.508C94.2067 153.437 94.2609 155.365 94.1827 157.287C94.1344 158.485 93.8934 159.675 93.7397 160.867C93.7397 166.425 94.0561 172.005 93.6735 177.54C92.9747 187.584 93.544 197.625 93.3271 207.665C93.3241 207.763 93.3271 207.861 93.3331 207.959C93.4115 209.464 93.4265 209.435 94.8996 209.625C97.6559 209.981 100.397 210.428 103.156 210.755C104.177 210.878 105.223 210.776 106.341 210.776C106.341 210.621 106.341 210.356 106.341 210.087C106.341 199.783 106.35 189.484 106.332 179.18C106.329 178.33 106.142 177.478 106.034 176.628C106.003 176.384 105.901 176.145 105.901 175.904C105.886 172.265 105.895 168.634 105.901 165.001Z" fill="#193C30"/>
</g>
<defs>
<clipPath id="clip0">
<rect width="146" height="214" fill="white"/>
</clipPath>
</defs>
</svg>
