<svg width="40" height="40" viewBox="0 0 40 40" fill="none" xmlns="http://www.w3.org/2000/svg">
<path d="M0 20C0 8.95431 8.95431 0 20 0C31.0457 0 40 8.95431 40 20C40 31.0457 31.0457 40 20 40C8.95431 40 0 31.0457 0 20Z" fill="#1E1928"/>
<path d="M16.4059 27H24.6644V25.5938H18.5792V25.4915L21.5195 22.3466C23.7695 19.9368 24.4343 18.8118 24.4343 17.3608C24.4343 15.3409 22.7979 13.7301 20.4968 13.7301C18.2021 13.7301 16.457 15.2898 16.457 17.5909H17.9656C17.9656 16.1016 18.9308 15.1108 20.4457 15.1108C21.8647 15.1108 22.9513 15.9801 22.9513 17.3608C22.9513 18.5689 22.2418 19.4638 20.7269 21.1193L16.4059 25.8494V27Z" fill="#EDE6DD"/>
</svg>
