<svg width="40" height="40" viewBox="0 0 40 40" fill="none" xmlns="http://www.w3.org/2000/svg">
<path d="M0 20C0 8.95431 8.95431 0 20 0C31.0457 0 40 8.95431 40 20C40 31.0457 31.0457 40 20 40C8.95431 40 0 31.0457 0 20Z" fill="#1E1928"/>
<path d="M20.5479 27.179C23.0856 27.179 24.9712 25.5874 24.9712 23.446C24.9712 21.7841 23.9869 20.576 22.3377 20.3011V20.1989C23.6609 19.7962 24.4854 18.7095 24.4854 17.233C24.4854 15.3793 23.0217 13.7301 20.5991 13.7301C18.3363 13.7301 16.457 15.1236 16.3803 17.1818H17.9144C17.9719 15.8778 19.212 15.1108 20.5735 15.1108C22.0181 15.1108 22.9513 15.9865 22.9513 17.3097C22.9513 18.6903 21.8711 19.5852 20.3178 19.5852H19.2695V20.9915H20.3178C22.3058 20.9915 23.4116 22.0014 23.4116 23.446C23.4116 24.8331 22.2035 25.7727 20.5224 25.7727C19.0075 25.7727 17.8058 24.9929 17.7099 23.7273H16.0991C16.195 25.7855 18.0103 27.179 20.5479 27.179Z" fill="#EDE6DD"/>
</svg>
