<svg width="128" height="112" viewBox="0 0 128 112" fill="none" xmlns="http://www.w3.org/2000/svg">
<path fill-rule="evenodd" clip-rule="evenodd" d="M4.18591 55.1626C4.18591 55.6405 4.21769 56.0864 4.28113 56.5323C6.63143 56.3093 10.6013 55.2264 10.6013 52.1047C10.6013 50.7032 9.87097 49.3335 8.02879 49.3335C5.61506 49.3335 4.18591 51.7224 4.18591 55.1626ZM14.9842 61.0555C14.1903 62.3295 11.713 64.8778 7.90179 64.8778C3.67767 64.8778 0.088913 61.7562 0.088913 56.819C0.088913 51.6268 4.05879 47.9001 8.60047 47.9001C11.6812 47.9001 14.1585 49.4927 14.1585 52.2003C14.1585 56.4367 7.93357 57.3925 4.50347 57.7109C5.2975 60.6095 7.45723 61.7881 9.74384 61.7881C11.6495 61.7881 12.9834 60.8325 13.9044 60.1318C14.5079 59.6539 15.27 60.6095 14.9842 61.0555Z" fill="#1E1928"/>
<path fill-rule="evenodd" clip-rule="evenodd" d="M42.7736 62.8392C43.2183 62.903 43.504 63.2215 43.504 63.6675V63.7948C43.504 64.2408 43.2183 64.5274 42.7736 64.5274H36.2628C35.8183 64.5274 35.5324 64.2408 35.5324 63.7948V63.6675C35.5324 63.2215 35.8183 62.903 36.2628 62.8392L36.8663 62.7755C37.3109 62.7117 37.5968 62.3932 37.5968 61.9474V53.57C37.5968 51.6268 36.4534 50.7669 35.0241 50.7669C34.0079 50.7669 32.9281 51.1173 32.0388 52.009C31.7529 52.2958 31.5942 52.5188 31.5942 53.1559V61.9474C31.5942 62.3932 31.8801 62.7117 32.3246 62.7755L32.9281 62.8392C33.3728 62.903 33.6586 63.2215 33.6586 63.6675V63.7948C33.6586 64.2408 33.3728 64.5274 32.9281 64.5274H26.4174C25.9727 64.5274 25.6868 64.2408 25.6868 63.7948V63.6675C25.6868 63.2215 25.9727 62.903 26.4174 62.8392L27.0208 62.7755C27.4654 62.7117 27.7512 62.3932 27.7512 61.9474V53.57C27.7512 51.6268 26.6079 50.7669 25.1786 50.7669C24.1624 50.7669 22.9873 51.2446 22.1298 52.0409C21.8121 52.3595 21.6533 52.6144 21.6533 53.0921V61.9474C21.6533 62.3932 21.9392 62.7117 22.3839 62.7755L22.9873 62.8392C23.4319 62.903 23.7177 63.2215 23.7177 63.6675V63.7948C23.7177 64.2408 23.4319 64.5274 22.9873 64.5274H16.4765C16.0318 64.5274 15.7461 64.2408 15.7461 63.7948V63.6675C15.7461 63.2215 16.0318 62.903 16.4765 62.8392L17.08 62.7755C17.5247 62.7117 17.8105 62.3932 17.8105 61.9474V51.4995C17.8105 51.0536 17.5247 50.7351 17.08 50.6713L16.3494 50.5757C15.9048 50.5121 15.6191 50.1934 15.6191 49.7476V49.6201C15.6191 49.1741 15.9048 48.8875 16.3494 48.8875C17.5881 48.8237 18.922 48.4734 20.129 47.9637C20.5417 47.7726 20.8593 47.9319 20.9229 48.3779L21.3676 50.8306H21.7805C22.9555 49.206 24.6705 47.9001 27.0525 47.9001C29.0852 47.9001 30.5144 49.015 31.1813 50.8306H31.6259C32.801 49.206 34.516 47.9001 36.8981 47.9001C39.7564 47.9001 41.4396 50.1617 41.4396 53.3788V61.9474C41.4396 62.3932 41.7256 62.7117 42.1701 62.7755L42.7736 62.8392Z" fill="#1E1928"/>
<path fill-rule="evenodd" clip-rule="evenodd" d="M56.8741 56.6915C56.8741 52.3914 55.1909 50.5758 52.7771 50.5758C51.729 50.5758 50.9669 50.9261 50.2998 51.4039C49.7599 51.7861 49.347 52.2321 49.347 53.0921V60.9281C49.347 62.2341 50.554 63.3808 52.3007 63.3808C54.8733 63.3808 56.8741 61.2147 56.8741 56.6915ZM60.9711 55.8952C60.9711 62.4888 56.62 64.9096 52.8089 64.9096C51.6656 64.9096 50.2999 64.6868 49.347 64.2727V69.0506C49.347 69.4966 49.6329 69.8151 50.0775 69.9107L51.6656 70.1336C52.1101 70.2292 52.396 70.5477 52.396 70.9937V71.121C52.396 71.567 52.1101 71.8536 51.6656 71.8536H44.1385C43.6939 71.8536 43.408 71.567 43.408 71.121V70.9937C43.408 70.5477 43.6939 70.1973 44.1067 70.1017L44.8054 69.9426C45.2183 69.8469 45.5042 69.4966 45.5042 69.0506V51.4995C45.5042 51.0535 45.2183 50.735 44.7737 50.6713L44.0432 50.5758C43.5986 50.512 43.3128 50.1935 43.3128 49.7475V49.62C43.3128 49.1742 43.5986 48.8876 44.0432 48.8876C45.2818 48.8238 46.6158 48.4734 47.8226 47.9637C48.2355 47.7727 48.5531 47.9318 48.6166 48.3778L48.9977 50.4802H49.4106C50.8715 48.6008 52.5866 47.9001 54.4604 47.9001C58.3986 47.9001 60.9711 51.1809 60.9711 55.8952Z" fill="#1E1928"/>
<path fill-rule="evenodd" clip-rule="evenodd" d="M71.4831 58.3161C71.4831 57.8701 71.2291 57.5834 70.7845 57.5834H69.6092C67.6085 57.5834 66.1792 58.4117 66.1792 60.1955C66.1792 61.7244 67.2272 62.4889 68.4979 62.4889C69.6092 62.4889 70.4669 61.9155 70.8798 61.5333C71.2292 61.2148 71.3242 60.9918 71.356 60.3546L71.4831 58.3161ZM78.4068 62.68C78.3432 62.8074 78.2164 62.9667 78.121 63.0941C77.2952 64.0815 76.1202 64.7503 74.6909 64.7503C73.1346 64.7503 72.1183 63.9541 71.8325 62.3614H71.4196C70.1811 64.0178 68.4343 64.9097 66.6557 64.9097C64.2102 64.9097 62.3363 63.3171 62.3363 60.9918C62.3363 58.8894 63.8925 57.4559 66.9098 56.7871L70.9115 55.9271C71.3242 55.8315 71.6103 55.4811 71.6421 55.0351L71.7055 53.984C71.8325 51.4358 70.8162 49.7157 68.0848 49.7157C66.8145 49.7157 65.6075 50.098 64.6548 50.8306C65.8617 50.8306 66.8145 51.6906 66.8145 52.901C66.8145 54.1114 65.8617 55.0351 64.6548 55.0351C63.4479 55.0351 62.4951 54.0795 62.4951 52.5188C62.4951 49.4927 66.1159 47.9001 69.4823 47.9001C73.357 47.9001 75.7708 49.9705 75.5484 53.6973L75.1355 61.0236C75.072 61.9474 75.5166 62.266 76.0884 62.266C76.3424 62.266 76.8823 62.2022 77.6763 61.8836C78.1528 61.6925 78.5974 62.2022 78.4068 62.68Z" fill="#1E1928"/>
<path fill-rule="evenodd" clip-rule="evenodd" d="M83.7736 64.7822C81.3917 64.7822 79.8989 63.5718 79.8989 60.0362V50.7032C79.8989 50.4801 79.772 50.2891 79.5495 50.2254L78.0251 49.6201C77.8346 49.5246 77.7076 49.3653 77.7076 49.1741V49.1105C77.7076 48.9513 77.8028 48.7919 77.9934 48.6964C79.7402 47.5815 81.3917 46.1482 83.0432 44.3644C83.329 44.0777 83.9641 44.3006 83.9008 44.7785L83.4243 48.2824H88.2518C88.6965 48.2824 88.9505 48.569 88.8869 49.0149L88.76 49.6201C88.6965 50.066 88.3789 50.321 87.9342 50.2891L83.7419 50.0024V59.5583C83.7419 61.82 84.5995 62.2022 85.838 62.2022C86.8861 62.2022 87.6483 61.9154 87.966 61.7563C88.3153 61.5969 88.6011 61.7563 88.7282 61.9792C88.8869 62.234 88.9187 62.5844 88.6011 62.8711C87.4895 63.7949 85.9334 64.7822 83.7736 64.7822Z" fill="#1E1928"/>
<path fill-rule="evenodd" clip-rule="evenodd" d="M107.212 62.8392C107.657 62.903 107.942 63.2215 107.942 63.6675V63.7948C107.942 64.2408 107.657 64.5274 107.212 64.5274H100.701C100.257 64.5274 99.9707 64.2408 99.9707 63.7948V63.6675C99.9707 63.2215 100.257 62.903 100.701 62.8392L101.305 62.7755C101.749 62.7117 102.035 62.3932 102.035 61.9474V53.5063C102.035 51.4039 100.765 50.7669 99.3356 50.7669C98.0969 50.7669 96.9854 51.2446 96.0007 52.1365C95.8737 52.264 95.6197 52.5188 95.6197 52.9965V61.9474C95.6197 62.3932 95.9055 62.7117 96.35 62.7755L96.9536 62.8392C97.3982 62.903 97.6841 63.2215 97.6841 63.6675V63.7948C97.6841 64.2408 97.3982 64.5274 96.9536 64.5274H90.4429C89.9982 64.5274 89.7124 64.2408 89.7124 63.7948V63.6675C89.7124 63.2215 89.9982 62.903 90.4429 62.8392L91.0462 62.7755C91.4909 62.7117 91.7768 62.3932 91.7768 61.9474V43.7592C91.7768 43.4406 91.5861 43.2177 91.2686 43.1858L90.4429 43.0264C89.9982 42.9628 89.7124 42.6442 89.7124 42.2301C89.7124 41.7843 89.9982 41.4976 90.4429 41.4657C91.9037 41.3384 93.3647 40.8924 94.8892 40.1915C95.3338 39.9686 95.6197 40.128 95.6197 40.5739V50.6394H96.0325C97.2076 49.015 98.8909 47.9001 101.114 47.9001C104.258 47.9001 105.878 50.1617 105.878 53.3788V61.9474C105.878 62.3932 106.164 62.7117 106.609 62.7755L107.212 62.8392Z" fill="#1E1928"/>
<path fill-rule="evenodd" clip-rule="evenodd" d="M123.885 48.2824C124.33 48.2824 124.616 48.569 124.616 49.015V49.0468C124.616 49.4928 124.33 49.8432 123.917 49.9387L123.663 50.0023C123.25 50.0979 122.901 50.4483 122.805 50.8624C121.376 56.9146 118.994 63.8586 115.786 68.0631C113.976 70.4203 111.975 71.9174 109.593 71.9174C107.338 71.9174 106.576 70.5477 106.576 69.3054C106.576 67.9994 107.497 67.0758 108.768 67.0758C110.038 67.0758 110.959 67.9994 110.959 69.2735C110.959 69.5603 110.927 69.8151 110.832 70.0698C112.674 69.3372 114.262 67.6171 115.66 65.3557C112.865 60.6414 110.641 55.8952 109.022 50.5121C108.958 50.2572 108.736 50.0661 108.45 50.0342L107.942 49.9387C107.497 49.875 107.211 49.5563 107.211 49.1106V49.015C107.211 48.569 107.497 48.2824 107.942 48.2824H114.198C114.643 48.2824 114.929 48.569 114.929 49.015V49.1106C114.929 49.5563 114.643 49.875 114.198 49.9387L113.881 50.0023C113.436 50.0661 113.214 50.3846 113.309 50.7987C114.357 54.8441 116.136 58.6028 117.629 61.6606C119.026 58.2842 120.169 54.3345 120.932 50.8306C121.027 50.4164 120.805 50.0979 120.36 50.0342L119.502 49.9068C119.058 49.8432 118.772 49.5246 118.772 49.0787V49.015C118.772 48.569 119.058 48.2824 119.502 48.2824H123.885Z" fill="#1E1928"/>
<path fill-rule="evenodd" clip-rule="evenodd" d="M125.441 64.9415C124.075 64.9415 122.964 63.8586 122.964 62.4888C122.964 61.151 124.075 60.0361 125.441 60.0361C126.775 60.0361 127.887 61.151 127.887 62.4888C127.887 63.8586 126.775 64.9415 125.441 64.9415Z" fill="#1E1928"/>
</svg>
