<svg width="600" height="600" viewBox="0 0 600 600" fill="none" xmlns="http://www.w3.org/2000/svg">
<g opacity="0.01">
<path d="M92.1428 451.072C92.1428 429.193 109.907 411.429 131.786 411.429H342.857C364.736 411.429 382.5 429.193 382.5 451.072C382.5 472.95 364.736 490.714 342.857 490.714H131.786C109.907 490.714 92.1428 472.95 92.1428 451.072Z" fill="white"/>
</g>
<g opacity="0.01">
<path d="M174.64 449.69C174.63 446.438 177.261 443.701 180.511 443.582L182.117 443.523C185.368 443.405 188.014 445.949 188.024 449.201C188.034 452.453 185.403 455.19 182.153 455.309L180.547 455.368C177.296 455.486 174.65 452.942 174.64 449.69Z" fill="#A4D6AF"/>
</g>
<g opacity="0.01">
<path d="M138.214 465C129.936 465 123.214 458.279 123.214 450C123.214 441.722 129.936 435 138.214 435C146.493 435 153.214 441.722 153.214 450C153.214 458.279 146.493 465 138.214 465Z" fill="#A4D6AF"/>
</g>
<g opacity="0.01">
<path d="M285 350.357C285 328.478 302.764 310.714 324.643 310.714H535.714C557.593 310.714 575.357 328.478 575.357 350.357C575.357 372.236 557.593 390 535.714 390H324.643C302.764 390 285 372.236 285 350.357Z" fill="white"/>
</g>
<g opacity="0.01">
<path d="M367.497 348.975C367.487 345.723 370.118 342.982 373.368 342.858L374.439 342.817C377.689 342.694 380.336 345.234 380.345 348.486C380.355 351.738 377.724 354.479 374.474 354.603L373.403 354.644C370.153 354.768 367.507 352.228 367.497 348.975Z" fill="#A4D6AF"/>
</g>
<g opacity="0.01">
<path d="M331.071 364.286C322.793 364.286 316.071 357.564 316.071 349.286C316.071 341.007 322.793 334.286 331.071 334.286C339.35 334.286 346.071 341.007 346.071 349.286C346.071 357.564 339.35 364.286 331.071 364.286Z" fill="#A4D6AF"/>
</g>
<g opacity="0.01">
<path d="M60 249.643C60 227.764 77.764 210 99.6429 210H310.714C332.593 210 350.357 227.764 350.357 249.643C350.357 271.522 332.593 289.286 310.714 289.286H99.6429C77.764 289.286 60 271.522 60 249.643Z" fill="white"/>
</g>
<g opacity="0.01">
<path d="M142.497 248.261C142.487 245.009 145.118 242.268 148.368 242.144L149.439 242.103C152.689 241.979 155.336 244.519 155.345 247.772C155.355 251.024 152.724 253.765 149.474 253.889L148.403 253.93C145.153 254.053 142.507 251.513 142.497 248.261Z" fill="#A4D6AF"/>
</g>
<g opacity="0.01">
<path d="M106.071 263.572C97.7929 263.572 91.0714 256.85 91.0714 248.572C91.0714 240.293 97.7929 233.572 106.071 233.572C114.35 233.572 121.071 240.293 121.071 248.572C121.071 256.85 114.35 263.572 106.071 263.572Z" fill="#A4D6AF"/>
</g>
<g opacity="0.01">
<path d="M279.643 148.929C279.643 127.05 297.407 109.286 319.286 109.286H530.357C552.236 109.286 570 127.05 570 148.929C570 170.808 552.236 188.571 530.357 188.571H319.286C297.407 188.571 279.643 170.808 279.643 148.929Z" fill="white"/>
</g>
<g opacity="0.01">
<path opacity="0.01" d="M322.64 143.699H326.925V155.453H329.411V143.699H333.697V141.589H322.64V143.699ZM340.393 155.657C343.447 155.657 345.375 153.514 345.375 150.299C345.375 147.074 343.447 144.921 340.393 144.921C337.35 144.921 335.411 147.074 335.411 150.299C335.411 153.514 337.35 155.657 340.393 155.657ZM340.415 153.696C338.722 153.696 337.897 152.196 337.897 150.289C337.897 148.392 338.722 146.86 340.415 146.86C342.065 146.86 342.89 148.392 342.89 150.289C342.89 152.196 342.065 153.696 340.415 153.696ZM351.45 155.635C353.229 155.635 354.043 154.574 354.429 153.814H354.568V155.453H356.979V141.589H354.525V146.774H354.429C354.054 146.024 353.283 144.921 351.45 144.921C349.05 144.921 347.165 146.807 347.165 150.267C347.165 153.696 348.997 155.635 351.45 155.635ZM352.125 153.632C350.508 153.632 349.661 152.207 349.661 150.257C349.661 148.317 350.497 146.935 352.125 146.935C353.711 146.935 354.568 148.242 354.568 150.257C354.568 152.271 353.69 153.632 352.125 153.632ZM362.733 155.667C364.372 155.667 365.347 154.896 365.786 154.028H365.872V155.453H368.229V148.499C368.229 145.746 365.99 144.921 363.997 144.921C361.811 144.921 360.14 145.896 359.593 147.792L361.886 148.114C362.122 147.407 362.818 146.796 364.018 146.796C365.154 146.796 365.775 147.374 365.775 148.403V148.446C365.775 149.142 365.036 149.174 363.204 149.378C361.19 149.592 359.261 150.192 359.261 152.539C359.261 154.585 360.75 155.667 362.733 155.667ZM363.375 153.867C362.347 153.867 361.618 153.396 361.618 152.496C361.618 151.553 362.443 151.167 363.536 151.007C364.179 150.921 365.465 150.76 365.786 150.503V151.724C365.786 152.882 364.843 153.867 363.375 153.867ZM372.343 159.353C374.261 159.353 375.365 158.367 375.954 156.717L380.111 145.06H377.508L375.108 152.914H374.99L372.6 145.06H369.997L373.768 155.667L373.565 156.235C373.104 157.414 372.386 157.499 371.315 157.189L370.747 159.096C371.079 159.235 371.679 159.353 372.343 159.353ZM383.443 155.603C384.247 155.603 384.922 154.939 384.933 154.114C384.922 153.299 384.247 152.635 383.443 152.635C382.618 152.635 381.943 153.299 381.954 154.114C381.943 154.939 382.618 155.603 383.443 155.603ZM383.443 148.178C384.247 148.178 384.922 147.514 384.933 146.689C384.922 145.874 384.247 145.21 383.443 145.21C382.618 145.21 381.943 145.874 381.954 146.689C381.943 147.514 382.618 148.178 383.443 148.178Z" fill="#1E1928"/>
</g>
<path d="M417.857 7.5H182.143C164.391 7.5 150 21.8908 150 39.6429V561.429C150 579.181 164.391 593.571 182.143 593.571H417.857C435.609 593.571 450 579.181 450 561.429V39.6429C450 21.8908 435.609 7.5 417.857 7.5Z" fill="white"/>
<mask id="mask0" mask-type="alpha" maskUnits="userSpaceOnUse" x="161" y="19" width="278" height="563">
<path d="M161.786 42.8572C161.786 29.839 172.339 19.2858 185.357 19.2858H414.643C427.661 19.2858 438.214 29.839 438.214 42.8572V558.214C438.214 571.232 427.661 581.786 414.643 581.786H185.357C172.339 581.786 161.786 571.232 161.786 558.214V42.8572Z" fill="#EDE6DD"/>
</mask>
<g mask="url(#mask0)">
<path d="M161.786 7.5H438.214V558.214C438.214 571.232 427.661 581.786 414.643 581.786H185.357C172.339 581.786 161.786 571.232 161.786 558.214V7.5Z" fill="#F4EFE9"/>
<path d="M226.071 20.3571C226.071 13.2564 231.828 7.5 238.929 7.5H360C367.1 7.5 372.857 13.2564 372.857 20.3571V28.9286C372.857 36.0294 367.1 41.7857 360 41.7857H238.929C231.828 41.7857 226.071 36.0294 226.071 28.9286V20.3571Z" fill="white"/>
</g>
</svg>
